# xmcd CD database file
#
# Track frame offsets:
#	150
#	18757
#	43925
#	69960
#	90575
#	110310
#	136317
#	163475
#	182452
#	205670
#	249210
#
# Disc length: 3667 seconds
#
# Revision: 0
# Processed by: cddbd v1.5.2PL0 Copyright (c) Steve Scherf et al.
# Submitted via: CDex 1.51
#
DISCID=870e510b
DTITLE=Los jovenes del barrio - Es diferente!
DYEAR=2000
DGENRE=Salsa
TTITLE0=Artemisa to New York
TTITLE1=Quisera ver (que rico que bueno)
TTITLE2=Cosas del amor
TTITLE3=Nuestro tiempo de amor
TTITLE4=El querendon
TTITLE5=Blue you
TTITLE6=Es diferente
TTITLE7=Quasi danzon
TTITLE8=Lo que te gusta
TTITLE9=Aragon medley
TTITLE10=El finalito
EXTD=YEAR: 2000
EXTT0=
EXTT1=
EXTT2=
EXTT3=
EXTT4=
EXTT5=
EXTT6=
EXTT7=
EXTT8=
EXTT9=
EXTT10=
PLAYORDER=
